<mxfile host="app.diagrams.net" modified="2024-07-07T13:40:46.681Z" agent="Mozilla/5.0 (Windows NT 10.0; Win64; x64) AppleWebKit/537.36 (KHTML, like Gecko) Chrome/126.0.0.0 Safari/537.36 Edg/126.0.0.0" etag="7oFP-T_NbU6QeEUIQmYI" version="24.6.4" type="github">
  <diagram name="Page-1" id="JvYj5ynbp1cTfOnm7b1a">
    <mxGraphModel dx="746" dy="1559" grid="1" gridSize="10" guides="1" tooltips="1" connect="1" arrows="1" fold="1" page="1" pageScale="1" pageWidth="850" pageHeight="1100" math="0" shadow="0">
      <root>
        <mxCell id="0" />
        <mxCell id="1" parent="0" />
        <mxCell id="eGcaVbcIQciXpMV7xsa7-16" value="" style="edgeStyle=orthogonalEdgeStyle;rounded=0;orthogonalLoop=1;jettySize=auto;html=1;" edge="1" parent="1" source="eGcaVbcIQciXpMV7xsa7-14" target="eGcaVbcIQciXpMV7xsa7-15">
          <mxGeometry relative="1" as="geometry" />
        </mxCell>
        <mxCell id="eGcaVbcIQciXpMV7xsa7-19" value="" style="edgeStyle=orthogonalEdgeStyle;rounded=0;orthogonalLoop=1;jettySize=auto;html=1;" edge="1" parent="1" source="eGcaVbcIQciXpMV7xsa7-14" target="eGcaVbcIQciXpMV7xsa7-17">
          <mxGeometry relative="1" as="geometry" />
        </mxCell>
        <mxCell id="eGcaVbcIQciXpMV7xsa7-22" value="" style="edgeStyle=orthogonalEdgeStyle;rounded=0;orthogonalLoop=1;jettySize=auto;html=1;" edge="1" parent="1" source="eGcaVbcIQciXpMV7xsa7-14" target="eGcaVbcIQciXpMV7xsa7-20">
          <mxGeometry relative="1" as="geometry" />
        </mxCell>
        <mxCell id="eGcaVbcIQciXpMV7xsa7-24" value="" style="edgeStyle=orthogonalEdgeStyle;rounded=0;orthogonalLoop=1;jettySize=auto;html=1;" edge="1" parent="1" source="eGcaVbcIQciXpMV7xsa7-14" target="eGcaVbcIQciXpMV7xsa7-23">
          <mxGeometry relative="1" as="geometry" />
        </mxCell>
        <mxCell id="eGcaVbcIQciXpMV7xsa7-14" value="Stack-Version-Check" style="rounded=1;absoluteArcSize=1;arcSize=14;whiteSpace=wrap;strokeWidth=2;" vertex="1" parent="1">
          <mxGeometry x="440" y="80" width="120" height="34" as="geometry" />
        </mxCell>
        <mxCell id="eGcaVbcIQciXpMV7xsa7-15" value="Azure App Services" style="rounded=1;absoluteArcSize=1;arcSize=14;whiteSpace=wrap;strokeWidth=2;" vertex="1" parent="1">
          <mxGeometry x="640" y="82" width="120" height="30" as="geometry" />
        </mxCell>
        <mxCell id="eGcaVbcIQciXpMV7xsa7-18" value="" style="edgeStyle=orthogonalEdgeStyle;rounded=0;orthogonalLoop=1;jettySize=auto;html=1;" edge="1" parent="1" source="eGcaVbcIQciXpMV7xsa7-17" target="eGcaVbcIQciXpMV7xsa7-14">
          <mxGeometry relative="1" as="geometry">
            <Array as="points">
              <mxPoint x="470" y="180" />
              <mxPoint x="470" y="180" />
            </Array>
          </mxGeometry>
        </mxCell>
        <mxCell id="eGcaVbcIQciXpMV7xsa7-17" value="Linux-Assets-Viewer&#xa;" style="rounded=1;absoluteArcSize=1;arcSize=14;whiteSpace=wrap;strokeWidth=2;" vertex="1" parent="1">
          <mxGeometry x="440" y="210" width="120" height="34" as="geometry" />
        </mxCell>
        <mxCell id="eGcaVbcIQciXpMV7xsa7-21" value="" style="edgeStyle=orthogonalEdgeStyle;rounded=0;orthogonalLoop=1;jettySize=auto;html=1;" edge="1" parent="1">
          <mxGeometry relative="1" as="geometry">
            <mxPoint x="470" y="-26" as="sourcePoint" />
            <mxPoint x="470" y="80" as="targetPoint" />
          </mxGeometry>
        </mxCell>
        <mxCell id="eGcaVbcIQciXpMV7xsa7-20" value="End of life (Public)Â " style="rounded=1;absoluteArcSize=1;arcSize=14;whiteSpace=wrap;strokeWidth=2;" vertex="1" parent="1">
          <mxGeometry x="440" y="-34" width="120" height="34" as="geometry" />
        </mxCell>
        <mxCell id="eGcaVbcIQciXpMV7xsa7-23" value="Memory Cache" style="whiteSpace=wrap;html=1;rounded=1;arcSize=14;strokeWidth=2;" vertex="1" parent="1">
          <mxGeometry x="270" y="82" width="120" height="30" as="geometry" />
        </mxCell>
        <mxCell id="eGcaVbcIQciXpMV7xsa7-25" value="deployed&amp;nbsp;" style="text;strokeColor=none;align=center;fillColor=none;html=1;verticalAlign=middle;whiteSpace=wrap;rounded=0;" vertex="1" parent="1">
          <mxGeometry x="570" y="78" width="60" height="20" as="geometry" />
        </mxCell>
        <mxCell id="eGcaVbcIQciXpMV7xsa7-26" value="send request" style="text;strokeColor=none;align=center;fillColor=none;html=1;verticalAlign=middle;whiteSpace=wrap;rounded=0;" vertex="1" parent="1">
          <mxGeometry x="500" y="10" width="80" height="20" as="geometry" />
        </mxCell>
        <mxCell id="eGcaVbcIQciXpMV7xsa7-28" value="send request" style="text;strokeColor=none;align=center;fillColor=none;html=1;verticalAlign=middle;whiteSpace=wrap;rounded=0;" vertex="1" parent="1">
          <mxGeometry x="500" y="166" width="80" height="20" as="geometry" />
        </mxCell>
        <mxCell id="eGcaVbcIQciXpMV7xsa7-29" value="fetch data" style="text;strokeColor=none;align=center;fillColor=none;html=1;verticalAlign=middle;whiteSpace=wrap;rounded=0;" vertex="1" parent="1">
          <mxGeometry x="385" y="166" width="80" height="20" as="geometry" />
        </mxCell>
        <mxCell id="eGcaVbcIQciXpMV7xsa7-30" value="fetch data" style="text;strokeColor=none;align=center;fillColor=none;html=1;verticalAlign=middle;whiteSpace=wrap;rounded=0;" vertex="1" parent="1">
          <mxGeometry x="385" y="14" width="80" height="20" as="geometry" />
        </mxCell>
      </root>
    </mxGraphModel>
  </diagram>
</mxfile>
